<svg width="64" height="65" viewBox="0 0 64 65" fill="none" xmlns="http://www.w3.org/2000/svg">
<path d="M40.6219 26.2924C39.2527 24.9234 37.0372 24.9233 35.6679 26.2924L30.0905 31.8698L28.3317 30.111C26.9628 28.7421 24.7471 28.7419 23.3779 30.111C22.0121 31.4767 22.012 33.699 23.3779 35.0647L27.6136 39.3005C28.2752 39.9621 29.1549 40.3265 30.0905 40.3265C31.0262 40.3265 31.9059 39.9621 32.5675 39.3006L40.6219 31.2462C41.9876 29.8805 41.9876 27.6582 40.6219 26.2924ZM39.0949 29.7194L31.0406 37.7737C30.7868 38.0275 30.4494 38.1673 30.0905 38.1673C29.7315 38.1673 29.3941 38.0275 29.1404 37.7737L24.9047 33.538C24.3807 33.0141 24.3807 32.1616 24.9047 31.6378C25.4298 31.1127 26.2797 31.1126 26.8049 31.6378L29.3271 34.16C29.5295 34.3624 29.8042 34.4762 30.0905 34.4762C30.3768 34.4762 30.6514 34.3624 30.8539 34.16L37.1947 27.8192C37.7198 27.2941 38.5698 27.2939 39.0949 27.8192C39.6189 28.3431 39.6189 29.1956 39.0949 29.7194Z" fill="url(#paint0_linear_132_14686)"/>
<rect x="0.5" y="0.748047" width="63" height="63" rx="31.5" stroke="url(#paint1_linear_132_14686)"/>
<defs>
<linearGradient id="paint0_linear_132_14686" x1="22.3535" y1="25.2656" x2="39.3514" y2="42.5793" gradientUnits="userSpaceOnUse">
<stop stop-color="#3378FF"/>
<stop offset="1" stop-color="#9442FE"/>
</linearGradient>
<linearGradient id="paint1_linear_132_14686" x1="0" y1="0.248047" x2="70.3864" y2="56.2163" gradientUnits="userSpaceOnUse">
<stop stop-color="#3378FF"/>
<stop offset="1" stop-color="#9442FE"/>
</linearGradient>
</defs>
</svg>
