<svg width="89" height="75" viewBox="0 0 89 75" fill="none" xmlns="http://www.w3.org/2000/svg">
<path fill-rule="evenodd" clip-rule="evenodd" d="M88.5254 11.9015C75.2663 18.3756 68.6368 25.9827 68.6368 34.7228C74.2883 35.3702 78.9615 37.6631 82.6567 41.6015C86.3518 45.54 88.1994 50.0988 88.1994 55.2781C88.1994 60.7811 86.4062 65.4209 82.8197 69.1975C79.2332 72.9741 74.723 74.8623 69.2889 74.8623C63.2028 74.8623 57.9318 72.4076 53.4759 67.498C49.0199 62.5885 46.792 56.6269 46.792 49.6133C46.792 28.5722 58.6381 12.1173 82.3306 0.248047L88.5254 11.9015ZM41.7334 11.9015C28.3656 18.3756 21.6818 25.9827 21.6818 34.7228C27.4419 35.3702 32.1695 37.6631 35.8647 41.6015C39.5598 45.54 41.4074 50.0988 41.4074 55.2781C41.4074 60.7811 39.587 65.4209 35.9462 69.1975C32.3053 72.9741 27.768 74.8623 22.3339 74.8623C16.2477 74.8623 11.0039 72.4076 6.60236 67.498C2.20076 62.5885 0 56.6269 0 49.6133C0 28.5722 11.7917 12.1173 35.3756 0.248047L41.7334 11.9015Z" fill="url(#paint0_linear_132_14716)"/>
<defs>
<linearGradient id="paint0_linear_132_14716" x1="88.5254" y1="77.0369" x2="4.57839" y2="-4.46755" gradientUnits="userSpaceOnUse">
<stop stop-color="#9C1EBC"/>
<stop offset="1" stop-color="#FF7676"/>
</linearGradient>
</defs>
</svg>
